Coordinates
version=1
nRows=7
nColumns=32
inDegrees=yes

Units are S.I. units (second, meters, Newtons, ...)
Angles are in degrees.
endheader
time	lower_torso_RX	lower_torso_RY	lower_torso_RZ	lower_torso_TX	lower_torso_TY	lower_torso_TZ	lumbar_pitch	lumbar_roll	lumbar_yaw	hip_flex_r	hip_add_r	hip_rot_r	knee_flex_r	tib_pat_r_r3	tib_pat_r_tx	tib_pat_r_ty	tib_pat_r_tz	ankle_flex_r	subt_angle_r	toe_angle_r	hip_flex_l	hip_add_l	hip_rot_l	knee_flex_l	tib_pat_l_r3	tib_pat_l_tx	tib_pat_l_ty	tib_pat_l_tz	ankle_flex_l	subt_angle_l	toe_angle_l
3.60000000000000010000	-4.30875933999999990000	6.93556168000000020000	-12.64270383000000000000	-0.32745617999999999000	0.67681462000000003000	-0.19721770000000000000	11.64150090000000000000	7.36136098999999970000	-2.87548180000000020000	23.43812794000000100000	8.79329000999999980000	14.23355430000000000000	32.44908433999999900000	9.37814326617793270000	0.04083067779972682900	-0.01958519865312275500	0.00219691669626343640	14.51213124999999900000	-3.95068251000000000000	0.00000000000000000000	28.49524688000000000000	-4.71887440999999970000	17.68368063999999900000	66.67315060000000000000	15.15014704522642000000	0.03250667070789793600	-0.01808602591601278500	-0.00214957326773124700	2.76957428000000010000	25.25494168999999900000	0.00000000000000000000
3.60999999999999990000	-4.23643199999999980000	6.72571758000000040000	-12.51651642999999900000	-0.32183450000000002000	0.67699739999999997000	-0.19704859999999999000	11.29167745000000000000	7.51234886000000040000	-2.36636710000000020000	22.66624629000000000000	8.80100445000000060000	14.47880308000000000000	32.31318287999999900000	9.34555637121673220000	0.04085583210269687300	-0.01959018545698306200	0.00219691669626343640	14.76440880000000000000	-3.85673048000000000000	0.00000000000000000000	29.97357470000000000000	-4.08642849000000030000	17.89981222999999800000	67.36205940000000700000	15.22573751857613200000	0.03233527311741463100	-0.01806902581119077700	-0.00214957326773124700	3.63157064000000010000	25.42962337000000200000	0.00000000000000000000
3.62000000000000010000	-4.13790235000000010000	6.56990466999999970000	-12.36285649999999900000	-0.31626504000000000000	0.67707927000000001000	-0.19698125999999999000	10.91207834000000100000	7.63432489000000030000	-1.83679346999999990000	21.87997650000000100000	8.77940633999999950000	14.67756953000000000000	32.22257814000000300000	9.32377954060507010000	0.04087257626194837300	-0.01959351177476289400	0.00219691669626343640	15.06770586999999900000	-3.80058543999999990000	0.00000000000000000000	31.41644048999999900000	-3.40510114000000020000	18.14863640000000100000	67.88344075000000500000	15.28204250889038600000	0.03220497185650751000	-0.01805655097816410600	-0.00214957326773124700	4.46199996000000000000	25.61373472000000000000	0.00000000000000000000
3.62999999999999990000	-4.01817514000000030000	6.45347782999999970000	-12.19409104000000000000	-0.31074196999999998000	0.67706348999999999000	-0.19699908999999999000	10.52387601999999900000	7.71357777999999960000	-1.28618046000000000000	21.08835978000000100000	8.72620964000000040000	14.83196362000000000000	32.16822063000000000000	9.31069498723852900000	0.04088261175039947100	-0.01959550799193682600	0.00219691669626343640	15.41745859000000100000	-3.75559464000000000000	0.00000000000000000000	32.85035064000000200000	-2.72620421000000010000	18.33630264000000000000	68.23369682000000600000	15.31943237551256100000	0.03211715126791765700	-0.01804837188253434500	-0.00214957326773124700	5.25592474000000020000	25.66755678999999900000	0.00000000000000000000
3.64000000000000010000	-3.88674098999999980000	6.35690843999999980000	-12.02879995000000000000	-0.30525934999999998000	0.67694845999999997000	-0.19708959000000001000	10.14897562000000000000	7.74726363000000000000	-0.71420797999999996000	20.30520560000000100000	8.64457370999999950000	14.95341321000000100000	32.12900006999999600000	9.30124489130507650000	0.04088984798294117300	-0.01959694860917985900	0.00219691669626343640	15.79874367000000000000	-3.69707616999999990000	0.00000000000000000000	34.29847128000000100000	-2.10430231000000000000	18.38615128000000000000	68.39829009999999700000	15.33688238942664700000	0.03207580225571626100	-0.01804458643387368500	-0.00214957326773124700	5.99658147999999970000	25.46806004000000100000	0.00000000000000000000
3.64999999999999990000	-3.75448429000000020000	6.26001794000000000000	-11.89138619999999900000	-0.29981147000000002000	0.67674955999999997000	-0.19725213000000000000	9.80779247999999980000	7.74146730000000010000	-0.12153867000000000000	19.54824356000000000000	8.54230070000000020000	15.06058316999999900000	32.07751070999999900000	9.28882694034176380000	0.04089934187420647700	-0.01959884023664356500	0.00219691669626343640	16.18965676999999900000	-3.60958744999999980000	0.00000000000000000000	35.77571461000000100000	-1.58690669999999990000	18.25076202000000000000	68.34980401000000000000	15.33174992507965800000	0.03208798824181525300	-0.01804569763031488000	-0.00214957326773124700	6.66074008000000010000	24.93084250000000100000	0.00000000000000000000
3.66000000000000010000	-3.63248732000000010000	6.14527247000000010000	-11.80731355000000000000	-0.29440007000000001000	0.67650001999999998000	-0.19747546999999999000	9.51695430999999910000	7.70773992999999980000	0.48964518000000001000	18.83554898999999900000	8.43086133000000080000	15.17589098000000000000	31.98635179000000100000	9.26680902398927310000	0.04091613368821921100	-0.01960219025383198200	0.00219691669626343640	16.56584850000000100000	-3.49099659999999990000	0.00000000000000000000	37.28639531000000300000	-1.20452595000000010000	17.91659823000000200000	68.04965094000000600000	15.29982894891600500000	0.03216332639593941900	-0.01805264897582338100	-0.00214957326773124700	7.22518241000000040000	24.02211507000000200000	0.00000000000000000000
